<svg width="2312" height="1395" viewBox="0 0 2312 1395" fill="none" xmlns="http://www.w3.org/2000/svg">
<g clip-path="url(#clip0_28_21)">
<rect width="2312" height="1395" fill="white"/>
<path d="M-242 695.158L-16.3335 596.36C40.4497 571.5 94.9804 541.783 146.651 507.54L185.212 481.985C302.706 404.12 399.922 299.339 468.779 176.349V176.349C504.786 112.034 532.624 43.4772 551.649 -27.733L611.97 -253.522" stroke="#F3F3F3" stroke-width="2"/>
<path d="M-24 1449.26L122 1324L259.5 1197L338.582 1105.85C388.411 1048.42 432.582 986.31 470.481 920.392V920.392C519.27 835.534 557.329 744.944 583.784 650.703L606.303 570.482C639.848 450.987 661.283 328.421 670.286 204.634L687.854 -36.944" stroke="#F3F3F3" stroke-width="2"/>
<path d="M454.554 1881.55L438.859 1583.56C436.023 1529.71 426.893 1476.38 411.656 1424.66L394.936 1367.89C354.623 1231.04 262.333 1115.41 137.825 1045.75V1045.75C80.8661 1013.89 18.6546 992.496 -45.8558 982.592L-324.572 939.804" stroke="#F3F3F3" stroke-width="2"/>
<path d="M842 -57.2905L1128 178.219C1176.42 218.087 1229.45 251.988 1285.96 279.194L1352.83 311.389C1507.19 385.701 1685.6 392.04 1844.84 328.869V328.869C1915.66 300.778 1980.61 259.735 2036.39 207.842L2292.65 -30.588" stroke="#F3F3F3" stroke-width="2"/>
<path d="M2410.64 540.493L2194.28 657.824C2139.87 687.33 2088.11 721.484 2039.58 759.905L2003.34 788.597C1892.96 875.983 1805.06 988.48 1746.97 1116.72V1116.72C1716.6 1183.76 1694.72 1254.33 1681.85 1326.8L1641.01 1556.7" stroke="#F3F3F3" stroke-width="2"/>
<path d="M1893.1 1438.7L1663.69 1311.57C1610.83 1282.27 1555.24 1258.21 1497.7 1239.72L1450.1 1224.43C1314.12 1180.74 1168.55 1176.48 1030.25 1212.14V1212.14C960.339 1230.17 893.375 1258.12 831.397 1295.15L618.124 1422.56" stroke="#F3F3F3" stroke-width="2"/>
<path d="M2315.4 297.288L2069.7 253.372C2009.08 242.537 1947.62 237.129 1886.04 237.212L1798.49 237.329C1683.86 237.482 1571.08 266.189 1470.33 320.855V320.855C1382.92 368.281 1306.8 434.038 1247.17 513.623L1204.8 570.182C1165.03 623.266 1130.57 680.127 1101.91 739.947L1089.32 766.223C1046.58 855.453 1014.09 949.242 992.472 1045.79L965 1168.5L926.5 1439.5" stroke="#F3F3F3" stroke-width="2"/>
<path d="M2456.6 981.031L2265.27 826.205C2217.16 787.269 2165.76 752.565 2111.67 722.48L2031.34 677.8C1934.55 623.968 1826.3 594.044 1715.61 590.52V590.52C1612.59 587.24 1510.14 606.911 1415.66 648.107L1378.43 664.343C1315.69 691.7 1256.38 726.32 1201.71 767.493L1151.42 805.366C1078.16 860.535 1012.92 925.609 957.566 998.725V998.725C889.032 1089.25 836.572 1190.88 802.478 1299.18L752 1459.52" stroke="#F3F3F3" stroke-width="2"/>
</g>
<defs>
<clipPath id="clip0_28_21">
<rect width="2312" height="1395" fill="white"/>
</clipPath>
</defs>
</svg>
