<svg width="170" height="170" viewBox="0 0 170 170" fill="none" xmlns="http://www.w3.org/2000/svg">
<rect width="170" height="170" rx="20" fill="#FFBF00"/>
<path d="M74.16 126.104C73.888 127.464 73.072 128.643 71.712 129.64C70.4427 130.547 68.6293 131 66.272 131C64.2773 131 62.6907 130.456 61.512 129.368C60.424 128.28 59.8347 127.147 59.744 125.968C60.288 122.16 60.56 116.448 60.56 108.832C60.56 104.299 60.288 97.3173 59.744 87.888C59.1093 79.0027 58.792 71.1147 58.792 64.224C58.792 60.5067 58.9733 56.6987 59.336 52.8C59.336 51.5307 60.0613 50.1707 61.512 48.72C63.0533 47.2693 65.1387 46.3627 67.768 46C76.3813 45.0933 86.944 44.64 99.456 44.64H103.808C107.072 44.64 110.245 45.2293 113.328 46.408C116.501 47.5867 118.088 49.6267 118.088 52.528C118.088 54.432 117.635 55.928 116.728 57.016C115.821 58.104 114.144 58.648 111.696 58.648C110.517 58.648 109.157 58.5573 107.616 58.376C106.075 58.1947 104.987 58.0587 104.352 57.968C100.907 57.424 98.232 57.152 96.328 57.152C85.8107 57.152 77.8773 57.8773 72.528 59.328C72.528 62.32 72.6187 67.1707 72.8 73.88L72.936 82.584C77.6507 82.584 81.8667 82.4027 85.584 82.04C89.3013 81.5867 91.432 81.3147 91.976 81.224C96.6907 80.68 99.8187 80.408 101.36 80.408C103.536 80.408 105.349 80.9067 106.8 81.904C108.341 82.8107 109.112 84.2613 109.112 86.256C109.112 90.7893 105.939 93.056 99.592 93.056C98.0507 93.056 96.6907 93.1013 95.512 93.192C94.3333 93.2827 93.336 93.3733 92.52 93.464C89.256 93.8267 86.672 94.008 84.768 94.008C80.5973 94.008 77.0613 94.144 74.16 94.416C74.16 97.7707 74.296 101.307 74.568 105.024C74.568 106.203 74.6133 108.016 74.704 110.464C74.8853 112.912 74.976 115.133 74.976 117.128C74.976 118.851 74.9307 120.437 74.84 121.888C74.7493 123.339 74.5227 124.744 74.16 126.104Z" fill="black"/>
</svg>
